PathFileType	4	(X/Y/Z)	./resultDataOpenSim/trcMotMarkerGrf/sub06/qtm-13-02.trc
DataRate	CameraRate	NumFrames	NumMarkers	Units	OrigDataRate	OrigDataStartFrame	OrigNumFrames
250.000000	250.000000	8	24	m	250.000000	202	537
Frame#	Time	L.Toe.Tip			R.Toe.Tip			L.Ankle.Lat			R.Ankle.Lat			L.Ankle.Med			R.Ankle.Med			L.Heel			R.Heel			L.Knee.Lat			R.Knee.Lat			L.Knee.Med			R.Knee.Med			L.Thigh.Upper			R.Thigh.Upper			L.ASIS			R.ASIS			V.Sacral			L.Acromium			R.Acromium			C7			L.Elbow			R.Elbow			L.Wrist.Lat			R.Wrist.Lat
		X1	Y1	Z1	X2	Y2	Z2	X3	Y3	Z3	X4	Y4	Z4	X5	Y5	Z5	X6	Y6	Z6	X7	Y7	Z7	X8	Y8	Z8	X9	Y9	Z9	X10	Y10	Z10	X11	Y11	Z11	X12	Y12	Z12	X13	Y13	Z13	X14	Y14	Z14	X15	Y15	Z15	X16	Y16	Z16	X17	Y17	Z17	X18	Y18	Z18	X19	Y19	Z19	X20	Y20	Z20	X21	Y21	Z21	X22	Y22	Z22	X23	Y23	Z23	X24	Y24	Z24

202	0.804	0.1021137	-0.014961359	-0.090757519	-0.40626648	0.11772221	0.076690531	-0.021458351	0.017580889	-0.11849876	-0.42083819	0.25879918	0.087226599	-0.024879205	0.031986015	-0.031846137	-0.37979165	0.23715997	0.0088555968	-0.09736609	-0.0093504685	-0.076115022	-0.44844185	0.29399253	0.018533781	0.03924548	0.38667597	-0.1397653	-0.075213504	0.37598216	0.15249005	0.0080396351	0.38899696	-0.020868385	-0.073010429	0.35759229	0.016961852	-0.065907612	0.7660559	-0.20794058	-0.15546876	0.73658342	0.12563163	-0.010374557	0.8084865	-0.14929599	-0.054302265	0.79946287	0.090504728	-0.21894888	0.88209385	-0.044226064	-0.059282426	1.283451	-0.23973492	-0.079345437	1.2895022	0.12017982	-0.1519879	1.3214516	-0.067809427	-0.16842488	0.9928931	-0.28878855	-0.14011313	0.97528879	0.2164703	-0.10461044	0.76578655	-0.35385763	0.074150203	0.85162551	0.17623823
203	0.808	0.10208946	-0.014973543	-0.09061365	-0.38798866	0.11873036	0.076802705	-0.021450913	0.01769803	-0.11845323	-0.40454311	0.25938361	0.08771174	-0.025069816	0.03220386	-0.03183443	-0.36328911	0.23851309	0.0091485038	-0.097417907	-0.009233619	-0.076125514	-0.43299254	0.29444285	0.01927233	0.040849397	0.38651542	-0.13917145	-0.060304089	0.37943752	0.15225768	0.0071034289	0.38944309	-0.020652151	-0.058034003	0.36042938	0.016448922	-0.059414728	0.76720464	-0.20830611	-0.14835172	0.73862979	0.12581731	-0.0043861921	0.81048257	-0.14971451	-0.048608067	0.8018577	0.090621737	-0.21210556	0.88327446	-0.047006361	-0.051763227	1.2853225	-0.23972864	-0.072850884	1.2914423	0.12001502	-0.14485664	1.3232269	-0.068201739	-0.15868513	0.99330189	-0.28889301	-0.1363873	0.97802657	0.2153674	-0.090657726	0.76733589	-0.35395778	0.075078265	0.8485821	0.17795139
204	0.812	0.10207233	-0.014968829	-0.090536819	-0.3694921	0.11948335	0.076993465	-0.021426052	0.017844884	-0.1184059	-0.38802784	0.25977014	0.088356093	-0.025203373	0.032481951	-0.031861597	-0.34673341	0.23962294	0.0094806167	-0.09745616	-0.0090921115	-0.076127634	-0.41763195	0.29449825	0.020062084	0.042183501	0.38648852	-0.13871053	-0.045516172	0.38316864	0.15196593	0.0061890308	0.3898974	-0.020478198	-0.043201712	0.36368266	0.015841166	-0.053044026	0.76828912	-0.20870234	-0.14172347	0.74077897	0.12523195	0.0016156145	0.81248521	-0.150103	-0.042606155	0.80431046	0.090593185	-0.20521941	0.88451243	-0.049838815	-0.044290406	1.2872491	-0.23971544	-0.066402098	1.2933961	0.1198753	-0.13772905	1.3250395	-0.068563665	-0.14899182	0.99377565	-0.28901848	-0.13262866	0.98078271	0.21424946	-0.076658959	0.76901729	-0.35397848	0.07580678	0.84566225	0.17984901
205	0.816	0.10205447	-0.014950385	-0.090526624	-0.35083145	0.11998896	0.077213827	-0.021379908	0.018024296	-0.11835541	-0.37144182	0.25991408	0.089089621	-0.025296623	0.032785128	-0.031928208	-0.3302524	0.2404972	0.0098441102	-0.097482051	-0.0089321377	-0.076110201	-0.40235482	0.2941802	0.020881379	0.043232516	0.38663702	-0.13841468	-0.030856961	0.38713228	0.15162098	0.0054864819	0.39035972	-0.020291312	-0.028300593	0.36729769	0.015149396	-0.046903806	0.76932691	-0.20910975	-0.1353323	0.74301258	0.12432153	0.0076068052	0.81446151	-0.15049119	-0.036420597	0.80680591	0.090511062	-0.19836483	0.88588075	-0.052593147	-0.03686839	1.2892236	-0.239703	-0.05999994	1.295356	0.11975761	-0.13061615	1.3268837	-0.068876898	-0.13933758	0.99430421	-0.28915078	-0.12892725	0.98354393	0.21312087	-0.062587072	0.77083879	-0.35390886	0.076279378	0.8428659	0.18189857
206	0.82	0.10202999	-0.014932181	-0.090559106	-0.3319643	0.12029775	0.077458232	-0.021336019	0.018228736	-0.11833016	-0.35503103	0.25971905	0.089780227	-0.025374406	0.033099735	-0.032038038	-0.31393709	0.2411278	0.010256851	-0.097498294	-0.0087584976	-0.076082944	-0.38716872	0.29349013	0.021711769	0.044035302	0.38697347	-0.13828008	-0.01633469	0.39128639	0.15121614	0.005180089	0.39084298	-0.020076527	-0.013312364	0.37118425	0.014406499	-0.04105656	0.77031116	-0.20950294	-0.12890849	0.74535626	0.12360714	0.01355573	0.81636244	-0.15091259	-0.030187423	0.80931871	0.090451132	-0.19159189	0.88743925	-0.055174665	-0.029509328	1.2912376	-0.23970156	-0.053632595	1.2973104	0.11966485	-0.12351947	1.3287433	-0.069134725	-0.12972383	0.99487953	-0.28927943	-0.1253028	0.98629618	0.2120062	-0.048443305	0.77279967	-0.35375415	0.076536715	0.84018542	0.18395015
207	0.824	0.10200262	-0.014921676	-0.090614549	-0.31281925	0.12045585	0.077750259	-0.021341266	0.018436646	-0.11838154	-0.33891583	0.25913368	0.090348353	-0.025440957	0.033430219	-0.03219523	-0.29770137	0.24151131	0.010770387	-0.097513265	-0.0085613043	-0.076082663	-0.37208332	0.29241612	0.022549584	0.044659271	0.3874425	-0.13828293	-0.0019586206	0.39559404	0.15073776	0.0053161188	0.39131949	-0.019924182	0.0015332613	0.37526121	0.013629674	-0.035442506	0.77122529	-0.20986705	-0.1222575	0.74784051	0.12336274	0.019448793	0.81814059	-0.15139036	-0.023968963	0.81182604	0.090436925	-0.18489192	0.88921362	-0.05757169	-0.022213935	1.2932761	-0.23971173	-0.047275161	1.2992461	0.11959906	-0.11643117	1.3305954	-0.069347886	-0.12017024	0.9954958	-0.28941352	-0.12167389	0.98903122	0.21092488	-0.034224228	0.77489418	-0.35350658	0.076638891	0.83762098	0.18591876
208	0.828	0.10197988	-0.014918279	-0.090681651	-0.29337997	0.12048544	0.078114791	-0.021411878	0.018630402	-0.1185315	-0.3229661	0.25821292	0.090833048	-0.025486726	0.033785968	-0.032400206	-0.28140136	0.24166038	0.01139693	-0.097536057	-0.0083186815	-0.076147842	-0.35708973	0.29096608	0.023405734	0.045158908	0.38794514	-0.1383949	0.012263789	0.40002093	0.15018077	0.0058352258	0.3917512	-0.019947857	0.015979629	0.37949086	0.012875951	-0.029963375	0.77206914	-0.21020096	-0.11536508	0.75045291	0.12359142	0.025329352	0.8197743	-0.15192451	-0.017715924	0.81432413	0.09043322	-0.17818353	0.89118084	-0.059867081	-0.014973793	1.2953227	-0.23972583	-0.040902367	1.3011477	0.11955523	-0.10934678	1.3324203	-0.069532696	-0.11070233	0.99614536	-0.28959909	-0.11794174	0.99173764	0.20987602	-0.019918198	0.77711723	-0.35314627	0.076596838	0.83517904	0.18784494
209	0.832	0.10196516	-0.014919341	-0.090751173	-0.27367437	0.12039482	0.078566403	-0.02150209	0.018818227	-0.1187447	-0.30697223	0.25705161	0.09130908	-0.025505084	0.034175716	-0.032641281	-0.26502605	0.24158313	0.012062179	-0.097569639	-0.008014393	-0.07629341	-0.34217406	0.28917675	0.024286097	0.045562655	0.38839854	-0.13858717	0.026328719	0.40453722	0.14955252	0.0065836122	0.3921338	-0.020153275	0.029896003	0.38386449	0.01222931	-0.024593818	0.772857	-0.21051081	-0.10829378	0.75310711	0.124053	0.031290315	0.82127389	-0.15250281	-0.011345077	0.81682043	0.090386684	-0.17135892	0.89327198	-0.062136387	-0.0077821063	1.2973653	-0.23973717	-0.034504512	1.3029995	0.119522	-0.10227254	1.3342078	-0.069697946	-0.10131951	0.99681917	-0.28991733	-0.11409226	0.99439306	0.20885098	-0.0055339245	0.77946481	-0.35266377	0.076411847	0.83286389	0.18978856
